<?xml version="1.0" encoding="UTF-8"?>
<svg id="Layer_1" data-name="Layer 1" xmlns="http://www.w3.org/2000/svg" viewBox="0 0 180 54.06">
  <defs>
    <style>
      .cls-1 {
        fill: none;
      }
    </style>
  </defs>
  <path class="cls-1" d="M37.41,35.88c-.92.02-2.24,1.32-2.38,2.5-.16,1.42,1.26.88,2.28,1.04.34-.54,1.74.7,1.62-.78-.08-1.08-.42-2.8-1.52-2.76Z"/>
  <path class="cls-1" d="M141.29,47.04c-.06-.98.3-2.38-1.02-2.24-1.16.12-2.44,1.44-2.48,2.36-.04,1.14,1.66,1.44,2.72,1.54,1.44.12.4-1.22.78-1.66Z"/>
  <path class="cls-1" d="M37.19,41.74c-.92.16-2.36-.4-2.16,1.04.16,1.14,1.46,2.48,2.4,2.48,1.08,0,1.48-1.7,1.52-2.8.04-1.42-1.28-.28-1.76-.74v.02Z"/>
  <path class="cls-1" d="M135.99,41.74c-.5.4-1.66-.6-1.7.64-.02,1.14.44,2.28,1.42,3.02.28.22,2.58-2.14,2.52-2.64-.18-1.54-1.4-.74-2.24-1.02Z"/>
  <path class="cls-1" d="M136.03,39.48c.82-.22,1.92.42,2.2-.9.08-.42-2.1-2.9-2.42-2.72-1.06.58-1.38,1.7-1.46,2.76-.12,1.48,1.2.46,1.68.86Z"/>
  <path class="cls-1" d="M32.59,44.78c-.54.22-.66.6-.6,1.1.1.96-.46,2.34.26,2.76.8.48,1.94-.32,2.84-.86.2-.12.38-.26.94-.64-.84-.72-1.54-1.3-2.24-1.92-.34-.3-.64-.64-1.2-.42v-.02Z"/>
  <path class="cls-1" d="M25.59,41.8c-1-.02-2.4-.54-2.9.3-.44.78.36,1.94.92,2.84.12.2.28.36.68.9.7-.86,1.4-1.62,2.02-2.44.7-.94.34-1.56-.74-1.58l.02-.02Z"/>
  <path class="cls-1" d="M31.99,35.32c0,.44.1.74.54.96.54.26.86,0,1.22-.32.68-.62,1.38-1.24,2.18-1.94-1-.96-1.96-1.32-2.96-1.62-.64-.18-1-.12-.98.66.02.76,0,1.5,0,2.26Z"/>
  <path class="cls-1" d="M24.35,39.4c.92-.18,2.06.44,2.3-1,.06-.32-2.3-2.86-2.5-2.72-.98.74-1.44,1.86-1.5,2.96-.08,1.46,1.26.26,1.7.74v.02Z"/>
  <path class="cls-1" d="M29.29,32.47c-.64-.52-1.84.28-2.68.8-.24.16-.48.32-1,.68.92.82,1.64,1.5,2.4,2.14.74.64,1.44.34,1.52-.48.12-1.06.58-2.48-.24-3.14Z"/>
  <path class="cls-1" d="M28.61,44.78c-1.14.1-2.46,1.42-2.48,2.38-.02,1.12,1.68,1.44,2.76,1.54,1.38.14.34-1.14.78-1.6-.32-.86.5-2.44-1.06-2.32Z"/>
  <path class="cls-1" d="M148.81,39.48c.44-.48,1.78.72,1.68-.82-.06-1.08-.42-2.18-1.44-2.8-.34-.2-2.54,2.24-2.44,2.7.26,1.34,1.38.68,2.2.92Z"/>
  <path class="cls-1" d="M137.41,10.61c-3.64-1.76-7.34-3.36-11.28-4.28-9.86-2.28-19.86-3.26-29.97-2.1-7.96.9-15.58,3.02-22.71,6.8-.4.22-1.16.56-1.14.72.2,1.02.88,1.86,1.08,2.92.12.66.9.36,1.38.36h29.51c9.14,0,18.26-.14,27.39.08,2.86.08,4.58-.92,6.04-3.12.48-.74.48-1.02-.32-1.4l.02.02Z"/>
  <path class="cls-1" d="M148.79,41.76c-.9.2-2.1-.46-2.22,1.08-.02.36,2.18,2.72,2.42,2.58,1.1-.64,1.44-1.82,1.5-2.92.06-1.46-1.26-.24-1.7-.74Z"/>
  <path class="cls-1" d="M140.71,32.47c-1.16,0-2.38.44-3.12,1.5-.16.24,2.36,2.56,2.7,2.48,1.38-.26.88-1.38,1-2.32-.38-.46.64-1.66-.6-1.66h.02Z"/>
  <path class="cls-1" d="M144.47,44.72c-1.26.28-.86,1.3-.94,2.24.4.48-.66,1.78.7,1.76,1.1,0,2.28-.44,2.98-1.48.16-.22-2.42-2.58-2.74-2.5v-.02Z"/>
  <path class="cls-1" d="M145.23,36.14c.82-.6,1.6-1.28,2.48-1.98-1.5-1.16-2.66-1.7-4.14-1.74,0,1.04-.08,2.02.02,2.98.12,1.04.72,1.4,1.64.72v.02Z"/>
  <path d="M174.7,17.33c-.7-2.06-2.12-3.32-4.38-3.44-3.32-.2-6.66-.42-9.98-.64-1.68-.1-3.34-.2-4.92-1.02-12.86-6.52-26.53-10.38-40.89-11.76-11.36-1.1-22.57-.36-33.47,3.3-7.4,2.48-14.26,6.18-21.22,9.64-1.98.98-3.94,1.48-6.18,1.5-12.9.12-25.71,1.32-38.21,4.74-4.9,1.34-9.36,3.32-12.36,7.72-1.62,2.36-2.4,5.02-3.08,7.74v4.22c.5.96.42,2.06.64,3.08.52,2.36,1.6,3.6,3.88,3.9,3.3.44,6.62.72,9.94,1.12,1.16.14,1.62,0,1.08-1.36-1.38-3.5-1.32-7.06-.16-10.64,2.8-8.68,12.06-13.16,21.08-10.14,8.1,2.72,12.66,12.42,9.6,20.62-.56,1.52-.18,1.72,1.24,1.72,26.19-.04,52.35-.04,78.54,0,1.6,0,1.78-.3,1.24-1.82-3.74-10.34,4.4-21.64,15.38-21.46,10.4.16,17.96,9.6,15.7,19.76-.38,1.74.26,1.7,1.48,1.54,4.12-.54,8.24-1.1,12.34-1.64,2.56-.34,4.38-1.72,5.72-3.9.92-1.5,1.54-3.1,2.28-4.68v-5.62c-1.94-4.1-3.88-8.2-5.34-12.5l.04.02ZM10.34,26.55c-.2.78-.28,1.6-.32,2.42-.02.34-.22.6-.56.68-1.94.46-3.84,1.14-5.82,1.5-.08,0-.14,0-.22.04-.42.08-.9.52-1.2.16-.2-.24.22-.74.36-1.1.32-.8.76-1.56,1.06-2.38.36-.98,1.1-1.42,2.06-1.56,1.28-.18,2.58-.32,3.88-.48.54-.06.88.08.76.74v-.02ZM137.73,12.01c-1.44,2.2-3.18,3.18-6.04,3.12-9.12-.24-18.26-.08-27.39-.08h-29.51c-.48,0-1.26.3-1.38-.36-.2-1.06-.88-1.9-1.08-2.92-.04-.16.72-.5,1.14-.72,7.12-3.78,14.74-5.9,22.71-6.8,10.1-1.16,20.1-.18,29.97,2.1,3.94.92,7.64,2.52,11.28,4.28.8.38.8.66.32,1.4l-.02-.02ZM173.6,18.83l4.84,11.42c-19.42-7.98-4.84-11.42-4.84-11.42Z"/>
  <path d="M30.81,27.03c-7.44,0-13.6,6.22-13.54,13.7.06,7.22,6.34,13.38,13.58,13.32,7.26-.06,13.42-6.16,13.44-13.28,0-7.6-6.02-13.74-13.48-13.74ZM24.15,35.68c.2-.14,2.56,2.4,2.5,2.72-.24,1.44-1.4.82-2.3,1-.44-.48-1.76.72-1.7-.74.06-1.1.52-2.24,1.5-2.96v-.02ZM23.61,44.94c-.56-.88-1.36-2.06-.92-2.84.48-.84,1.9-.32,2.9-.3,1.08.02,1.44.64.74,1.58-.62.82-1.3,1.6-2.02,2.44-.42-.54-.56-.7-.68-.9l-.02.02ZM28.89,48.7c-1.08-.1-2.78-.42-2.76-1.54,0-.94,1.34-2.28,2.48-2.38,1.56-.12.72,1.44,1.06,2.32-.44.46.6,1.74-.78,1.6ZM29.53,35.62c-.1.82-.78,1.12-1.52.48-.76-.64-1.48-1.32-2.4-2.14.54-.36.76-.52,1-.68.84-.52,2.04-1.32,2.68-.8.8.66.36,2.08.24,3.14ZM32.95,32.39c1,.3,1.96.66,2.96,1.62-.8.72-1.48,1.32-2.18,1.94-.36.32-.68.58-1.22.32-.46-.22-.56-.52-.54-.96,0-.76.02-1.5,0-2.26-.04-.78.34-.84.98-.66ZM35.09,47.76c-.88.56-2.04,1.34-2.84.86-.72-.42-.18-1.82-.26-2.76-.04-.5.08-.88.6-1.1.56-.22.86.12,1.2.42.7.62,1.4,1.2,2.24,1.92-.56.38-.74.52-.94.64v.02ZM37.43,45.26c-.94,0-2.24-1.34-2.4-2.48-.2-1.44,1.24-.88,2.16-1.04.48.44,1.8-.7,1.76.74-.04,1.1-.44,2.8-1.52,2.8v-.02ZM37.31,39.42c-1-.16-2.44.38-2.28-1.04.14-1.16,1.46-2.46,2.38-2.5,1.1-.04,1.44,1.68,1.52,2.76.1,1.48-1.28.24-1.62.78Z"/>
  <path d="M142.33,27.15c-7.54.1-13.46,6.24-13.32,13.82.14,7.2,6.42,13.24,13.56,13.06,7.42-.18,13.38-6.28,13.22-13.58-.16-7.46-6.18-13.42-13.48-13.32l.02.02ZM134.35,38.62c.08-1.06.4-2.18,1.46-2.76.34-.18,2.52,2.3,2.42,2.72-.28,1.32-1.38.68-2.2.9-.48-.4-1.8.62-1.68-.86ZM135.71,45.4c-.96-.74-1.44-1.88-1.42-3.02.02-1.24,1.2-.24,1.7-.64.84.26,2.08-.52,2.24,1.02.06.5-2.24,2.86-2.52,2.64ZM140.51,48.7c-1.06-.08-2.76-.4-2.72-1.54.04-.92,1.32-2.24,2.48-2.36,1.32-.14.94,1.24,1.02,2.24-.38.44.66,1.78-.78,1.66ZM141.31,34.14c-.12.94.38,2.06-1,2.32-.36.06-2.88-2.26-2.7-2.48.74-1.06,1.96-1.5,3.12-1.5,1.24,0,.22,1.2.6,1.66h-.02ZM149.05,35.88c1.02.6,1.38,1.72,1.44,2.8.1,1.54-1.24.34-1.68.82-.84-.24-1.94.44-2.2-.92-.08-.46,2.12-2.9,2.44-2.7ZM143.55,32.41c1.48.04,2.64.58,4.14,1.74-.86.7-1.64,1.38-2.48,1.98-.92.68-1.54.32-1.64-.72-.1-.96-.02-1.96-.02-2.98v-.02ZM144.23,48.72c-1.34.02-.3-1.28-.7-1.76.08-.94-.32-1.96.94-2.24.32-.06,2.88,2.28,2.74,2.5-.7,1.04-1.9,1.46-2.98,1.48v.02ZM148.99,45.4c-.24.14-2.44-2.22-2.42-2.58.12-1.52,1.32-.88,2.22-1.08.44.5,1.76-.72,1.7.74-.04,1.1-.4,2.28-1.5,2.92Z"/>
</svg>