<?xml version="1.0" encoding="UTF-8"?>
<svg id="Layer_1" data-name="Layer 1" xmlns="http://www.w3.org/2000/svg" viewBox="0 0 180 71.26">
  <defs>
    <style>
      .cls-1 {
        fill: none;
      }
    </style>
  </defs>
  <g id="dijXN4">
    <g>
      <path d="M132.57,57.86c-.2-7.2,6-13.39,13.39-13.39s13.39,6,13.19,13.39c0,7.4-6.2,13.19-13.19,13.39-7.2,0-13.59-5.8-13.39-13.39ZM144.77,51.47v-1.6c0-.4,0-.6-.6-.4-2.4.4-4.2,1.6-5.6,3.6-.2.4-.4.6.2,1,1,.4,1.8.8,2.8,1,1.4.4,2.4-.4,2.8-1.6.4-.8.2-1.4.4-2ZM137.17,56.46c-.4,1.6,0,3.2.4,4.6.4.8.8,1.6,1.4,2.4.4.4.6.4.8,0,.6-.8,1.2-1.6,1.8-2.6.6-1.4,0-3.2-1.4-3.6-1-.2-1.8-.8-3-.8ZM145.77,66.66c1,0,2-.4,3-.6.6-.2.6-.4.4-1-.4-.6-.8-1.4-1.2-2-.8-1-2.4-1.4-3.4-.8-1,.6-1.4,1.6-2,2.4-.6.6-.4,1,.2,1.2.8.4,1.8,1,3,.8ZM147.56,51.67h0v1.2c0,1.6.8,2.4,2.4,2.2,1.2,0,2.2-.4,3.2-.6.6-.2.4-.4.2-.8-1-1.6-2.2-2.8-4-3.6s-2-.6-2,1.2c.2,0,.2.2.2.4ZM154.36,58.46v-1.2c0-.4-.2-.6-.6-.4-1.2.4-2.4.8-3.4,1.6-1,.6-1.2,1.8-.6,2.8.4.8,1,1.6,1.6,2.4.4.6.6.4,1,0,1.2-1.4,2-3,2-5.2Z"/>
      <path d="M43.61,58.06c-.2,7.6-5.8,13.39-13.39,13.19-7.6,0-13.19-5.8-13.19-13.39,0-7.2,5.6-13.39,13.59-13.19,7.2,0,12.79,5.6,12.99,13.39ZM22.42,56.66c-.8-.2-1,.2-1,.8,0,2.2.6,4.4,2,6.2.4.4.6.4,1,0,.6-.8,1.2-1.8,1.8-2.8s.2-1.6-.4-2.4c-.8-1.4-2.4-1.6-3.4-1.8ZM34.41,55.26c1,0,2.2-.4,3.2-.8.4-.2.6-.4.2-.8-1.2-2-3-3.6-5.4-4-.4-.2-.6,0-.6.6v3c.2.8,1,2.2,2.6,2ZM29.02,51.07v-1c0-.6-.2-.8-.8-.6-2.4.4-4,1.8-5.4,3.6-.2.4-.2.6.2.8,1,.6,2,.8,3.2,1,.6.2,1.2,0,1.8-.4,1.2-.8,1.2-2,1-3.4ZM39.01,58.06c-.2-.4.4-1.4-.6-1-1,.2-2,.6-2.8,1-1.4.8-2.2,2-1.2,3.6.4.6.8,1.4,1.4,2,.4.6.6.4,1,0,1.4-1.6,2-3.6,2.2-5.6ZM30.22,66.66h.8c.8-.2,1.4-.4,2.2-.6.4-.2.6-.4.4-.8-.4-.8-1-1.6-1.6-2.2-1-1.2-2.8-1.4-4-.2-.6.6-1,1.4-1.6,2s-.2.8.4,1c1.2.4,2.2,1,3.4.8Z"/>
    </g>
  </g>
  <g>
    <path class="cls-1" d="M161.56,16.08c-.4-3.2-.6-6.2-1.2-9.4-.6-2.6-1.4-3.2-4-3.2-7.4,0-14.59,0-21.99.2-8,.2-16.19,0-24.19,0h-24.79c-1.6,0-1.6.2-1.6,1.6v17.59c0,1.4.6,2,2,2,2.2.2,4.2-.4,6.2-.4,4.2,0,8.4,0,12.59-.2,4.8-.2,9.6-.2,14.39-.4,9-.4,17.99-.2,26.99-.6,4.6-.2,9.2,0,13.79-.2,1.6,0,2.4-.8,2-2.4,0-1.6,0-3.2-.2-4.6Z"/>
    <path class="cls-1" d="M14.42,33.87c-1.8.2-3.4.4-5.2.6-1.2.2-2.2.8-2.8,2.2-.4,1-1,2.2-1.4,3.2-.2.6-.8,1.2-.4,1.4.4.4,1-.2,1.6-.2h.2c2.6-.4,5.2-1.4,7.8-2,.4-.2.8-.4.8-1,0-1.2.2-2.2.4-3.2.2-1-.2-1.2-1-1Z"/>
    <path class="cls-1" d="M77.8,4.09h-2.4c-3.8.2-7.6.4-11.2.6-2.6.2-5,1-7.2,2.2-3.6,2.2-6.8,5-10,7.6-2.2,1.8-4.2,3.4-6.2,5.2-1.8,1.6-3.8,3.4-5.2,5.4-.4.4-.6,1-.4,1.4.2.6.8.4,1.2.4,4.2-.2,8.4-.2,12.39-.4,4.8-.4,9.8-.4,14.79-.6,4.2-.2,8.4-.2,12.59-.6.6,0,.8-.2.8-1,.2-1.4.4-3,.4-4.4.2-2.8.6-5.6.8-8.4,0-.6,0-1.2.2-1.8.4-1.4.2-3,.4-4.4.2-1-.2-1.4-1-1.2Z"/>
    <path class="cls-1" d="M174.35,32.47q-.2-2.8-2.8-2.6c-.6,0-.8.2-.8.8v3c0,1.4,0,2.8.2,4.2q.2,2.4,2.6,2.4c.8,0,1.2-.2,1-1-.2-2.2,0-4.4-.2-6.8Z"/>
    <path d="M179.95,55.46c-.2-1.2-1-2-1.8-2.8-1-1-1.4-2-1.4-3.4,0-2.6.6-5.2-.6-7.6v-.4c.2-3.8-.6-7.6-.4-11.2,0-2.6-.4-5-1-7.4-.8-4-1.8-7.8-2.8-11.59-.6-2.6-1.6-5.2-2.6-7.8-.8-1.8-1.8-2.4-3.8-2.6-1.2,0-2.4-.2-3.6-.2-5.2-.2-10.4,0-15.79-.4-3.4-.2-6.8,0-10.2,0-12.19,0-24.39-.2-36.58.2-7.2.2-14.19.2-21.39.6-4.2.2-8.4.4-12.59.6-3.8.2-7.2,1.2-10.6,3s-6.6,4-9.6,6.4c-4.6,3.6-9,7-13.39,10.8-1.8,1.4-15.99,7-20.79,9C-1.97,34.87.23,51.47.03,53.47c0,2,.6,3.8,1,5.6.6,1.6,1.4,3.2,1.4,4.8,0,1.4.2,2.2,2.2,2.2,3.4.2,6.8,0,10.2.2.6,0,.8-.2.6-.8-.6-1.4-.6-2.8-.8-4.2-.4-3.6-.2-7,1.6-10.4,2.2-4.4,5.8-7,10.6-7.8,3-.6,6-.6,9,.4,3.2,1,5.8,2.8,7.8,5.6s2.8,6,2.8,9.6c0,2.2.2,4.6.2,6.8,0,.4,0,1,.6,1,1.4,0,3,.2,4.4-.2,1.6-.4,3.2-.4,5-.8,2.4-.4,4.8-.4,7.2-.6,5.2-.2,10.6-.6,15.79-.6,3.6,0,7.2,0,10.8-.2,8.2-.2,16.59,0,24.79-.4,4.8-.2,9.6,0,14.19,0,.6,0,.8,0,.8-.8,0-1.6.2-3,.2-4.6,0-2.2.4-4.2,1-6.4,1.8-6,7.4-9.2,12.59-9.6,2.6-.2,5.2.4,7.8,1.2,2.8,1,5,2.8,6.6,5.4,2.2,3.6,2.2,7.6,2.2,11.4,0,1.2,0,1.4,1.2,1.4h15.19c.6,0,1.2-.2,1.6-.6,1.2-1.4,1.6-3.4,1.4-5.6ZM15.42,34.87c-.2,1-.4,2.2-.4,3.2,0,.4-.2.8-.8,1-2.6.6-5.2,1.6-7.8,2h-.2c-.6.2-1.2.6-1.6.2-.2-.4.4-1,.4-1.4.4-1,1-2.2,1.4-3.2.4-1.4,1.4-2,2.8-2.2,1.8-.2,3.4-.4,5.2-.6.8-.2,1.2,0,1,1ZM75.8,37.07h-6.4v-1.8h6.4v1.8ZM78.79,5.09c-.2,1.4-.2,3-.4,4.4-.2.6,0,1.2-.2,1.8-.2,2.8-.6,5.6-.8,8.4-.2,1.4-.4,3-.4,4.4,0,.6-.2.8-.8,1-4.2.4-8.4.4-12.59.6-5,.2-9.8.2-14.79.6-4.2.2-8.4.4-12.39.4-.4,0-1,.2-1.2-.4-.2-.4,0-1,.4-1.4,1.6-2,3.4-3.8,5.2-5.4,2-1.8,4.2-3.4,6.2-5.2,3.2-2.6,6.4-5.6,10-7.6,2.2-1.4,4.6-2.2,7.2-2.2,3.6-.2,7.4-.4,11.2-.6h2.4c.8,0,1.2.4,1,1.2ZM159.96,23.08c-4.6.2-9.2,0-13.79.2-9,.4-17.99.2-26.99.6-4.8.2-9.6,0-14.39.4-4.2.2-8.4.2-12.59.2-2,0-4.2.4-6.2.4-1.4,0-2-.6-2-2V5.29c0-1.4.2-1.6,1.6-1.6h24.79c8,0,16.19.2,24.19,0,7.4-.2,14.59,0,21.99-.2,2.6,0,3.4.8,4,3.2.6,3,.8,6.2,1.2,9.4.2,1.6.2,3,.4,4.6.2,1.6-.6,2.4-2.2,2.4ZM173.35,40.47q-2.4,0-2.6-2.4c-.2-1.4,0-2.6-.2-4.2v-3c0-.6.2-.8.8-.8,2.8-.2,2.6-.2,2.8,2.6.2,2.2,0,4.6.2,6.8.2.6-.2,1-1,1Z"/>
  </g>
</svg>